PathFileType	4	(X/Y/Z)	C:\Users\°ÂÌØÂü\Desktop\20210112\bx_n_10_1801-Unnamed.trc
DataRate	CameraRate	NumFrames	NumMarkers	Units	OrigDataRate	OrigDataStartFrame	OrigNumFrames
50.00	50.00	       5	0	mm	50.00	493	       563
Frame#	Time	
		

493	9.840	-675.51721	278.74927	876.11542	-692.25348	-77.99763	1543.47363	-589.33899	233.49852	1067.35254	-573.52972	208.30348	815.68762	-762.44165	251.13387	505.07700	-787.21057	86.73781	1051.43176	-581.31702	-18.99249	1059.67883	-666.49744	53.35605	159.48007	-658.56934	11.63562	520.63892	-710.58038	71.77219	217.66205	-575.83344	-16.84986	804.43469	-720.06580	244.17961	644.96564	-708.91803	151.90964	216.42242	-650.89197	-69.24422	160.52975	-711.32251	-35.70946	569.74054	-766.33533	223.76744	205.83183	-609.66315	-79.26176	156.52933	-882.44165	296.28186	144.84575	-683.12262	69.66242	577.73828	-593.74622	22.36163	168.57025	-549.89014	-34.26571	164.39818	-672.01373	173.06606	157.23352	-589.86688	220.71935	173.46400	-660.34961	298.40921	158.45523	-623.68445	306.72614	158.87004	-554.57611	257.90509	164.77609	-528.03583	304.25760	146.54501	-690.16357	111.39710	1852.49768	-696.80798	280.37415	1536.69287	-517.55389	-72.62478	142.82985	-792.70380	174.62535	184.82831	-720.96802	241.36946	579.56757	-786.41815	47.54413	176.07149	-667.44916	200.60507	537.20715	-757.95978	-43.50056	489.79956	-757.05682	-13.95679	206.62285	-875.95648	-78.79716	141.44162	-651.40631	-81.21206	875.26611	-702.72034	-39.05706	616.95172	-588.16754	93.40889	1357.09387	-686.56689	263.23303	746.44940	-678.60590	139.71738	581.38055	-677.00037	-67.65160	761.03442	
494	9.860	-675.55780	279.03775	876.30084	-693.30176	-77.82310	1543.35889	-589.58472	233.66757	1067.62903	-573.52972	208.30348	815.68762	-762.35419	251.16034	505.05911	-787.67334	86.84112	1051.33459	-581.94891	-18.81780	1059.76489	-666.79565	53.56477	159.73273	-658.73938	11.43338	520.75616	-710.62537	71.56229	217.21213	-576.17328	-16.88014	804.56372	-719.95557	244.31526	644.89880	-708.93622	152.16792	216.26672	-650.97485	-69.30681	160.58990	-711.26318	-35.38384	569.79779	-766.27985	223.92389	205.80098	-609.59393	-79.25560	156.51459	-882.54224	296.21283	144.64316	-683.31848	69.36356	577.62939	-593.87360	22.29760	168.56865	-549.89014	-34.26571	164.39818	-672.43744	173.17628	156.91090	-589.83380	220.62131	173.57117	-660.25867	298.43634	158.50641	-623.80341	306.76035	159.03281	-554.26447	257.92236	165.29146	-528.13812	304.47565	146.66014	-690.85315	111.57954	1852.38843	-697.29364	281.04593	1536.59607	-517.53699	-72.55392	142.70999	-792.63446	174.67509	184.96954	-720.75183	241.64302	579.46594	-786.50598	47.18230	176.00182	-667.40735	200.56345	537.08447	-757.78284	-43.37281	489.76227	-757.06110	-14.11949	206.44804	-875.95648	-78.79716	141.44162	-651.53894	-81.04109	875.15784	-702.71277	-38.91720	617.09790	-588.84668	93.43979	1356.96387	-686.65973	263.25198	746.30322	-678.75287	139.85072	581.34192	-677.32574	-67.43471	761.04242	
495	9.880	-675.88702	279.24744	876.16809	-694.12183	-77.25977	1543.22986	-590.14075	233.86298	1067.87781	-573.66638	208.37401	815.77161	-762.19086	251.51129	504.86508	-787.98712	87.29657	1051.37830	-582.66791	-18.62078	1059.68335	-666.76239	53.32507	160.30745	-659.32538	11.90924	520.71307	-710.68579	71.53210	217.39331	-576.22418	-16.81111	804.68536	-719.95557	244.31526	644.89880	-708.94427	151.96695	216.34937	-650.89197	-69.24422	160.52975	-711.16180	-35.36972	569.68848	-766.34558	223.97025	205.82121	-609.62299	-79.43593	156.80147	-882.54572	296.17123	144.79439	-682.99902	69.70966	577.76855	-593.93225	22.26072	168.70216	-549.77441	-34.29159	164.53262	-672.19342	173.03970	157.25114	-589.92731	220.58333	173.56358	-660.24335	298.37677	158.40601	-623.81464	306.73535	159.07335	-554.22113	258.04852	165.32822	-527.99078	304.21622	146.57008	-691.72589	111.92168	1852.31323	-698.43225	280.75473	1536.41162	-517.56635	-72.83256	142.85760	-792.70380	174.62535	184.82831	-720.63660	241.69365	579.58838	-786.61554	47.24112	175.97527	-667.31317	200.76973	537.01678	-758.00507	-43.36789	489.76135	-756.99701	-14.09989	206.54585	-875.99792	-78.69180	141.55168	-651.79431	-80.77314	875.11383	-702.71277	-38.91720	617.09790	-589.53870	93.39476	1357.07275	-686.62079	263.35535	746.33215	-678.72815	139.91203	581.41022	-677.31323	-67.05046	760.92645	
496	9.900	-675.94727	280.10989	876.33759	-694.89044	-76.85601	1543.34131	-590.41663	233.76106	1068.03979	-573.89380	208.54428	816.13892	-761.98682	251.45761	504.97690	-788.58228	87.83904	1051.29614	-583.09467	-18.58319	1059.72424	-666.70703	53.43061	160.01915	-659.08813	11.69636	520.64075	-710.68579	71.53210	217.39331	-576.44073	-16.50383	804.88263	-719.93994	244.48375	644.95074	-708.87158	152.02045	216.53983	-650.97803	-69.21994	160.70239	-711.11865	-35.32704	569.80536	-766.41919	223.90530	205.86290	-609.63910	-79.29660	156.93401	-882.48578	296.04614	144.75320	-682.93500	69.81595	577.76385	-593.86810	22.35565	168.76659	-549.89648	-34.28230	164.54408	-672.48035	172.87605	157.10568	-589.84454	220.63440	173.52878	-660.34961	298.40921	158.45523	-623.76038	306.67200	158.93282	-554.31097	257.88943	165.13672	-527.95288	304.40765	146.69830	-692.37378	112.25414	1852.28723	-699.28778	280.90948	1536.48279	-517.44476	-72.76830	143.27950	-792.71771	174.70259	184.88805	-720.31042	241.50270	579.00854	-786.71405	47.15456	175.82635	-667.20575	200.74713	537.12854	-757.72083	-43.34607	489.73203	-757.09210	-14.46836	206.59982	-876.01624	-78.73471	141.48239	-652.22876	-80.42654	875.12616	-702.71277	-38.91720	617.09790	-590.25970	93.87634	1356.95984	-686.62079	263.35535	746.33215	-678.57727	140.18637	581.64423	-677.46057	-66.89579	761.07166	
497	9.920	-676.23767	279.96298	876.27618	-695.81146	-77.05228	1543.27307	-590.92230	234.04549	1067.67297	-574.25311	208.73251	816.43481	-761.77448	251.91588	505.25705	-789.18396	87.88579	1051.23499	-583.58618	-18.50373	1059.74561	-666.69348	53.37907	159.80663	-659.02942	11.82134	520.70557	-710.97321	71.52279	217.50665	-576.73676	-16.09850	805.06293	-719.52179	244.81340	644.92889	-709.19116	152.07985	216.16556	-650.97803	-69.21994	160.70239	-711.18402	-35.19236	569.87750	-766.34558	223.97025	205.82121	-609.51544	-79.04894	156.61580	-882.45593	296.22400	144.77756	-682.93500	69.81595	577.76385	-593.86810	22.35565	168.76659	-549.95172	-34.33278	164.64027	-672.19342	173.03970	157.25114	-589.94519	220.61691	173.69574	-660.30182	298.33563	158.52153	-623.83722	306.79080	158.92679	-554.73303	257.80521	165.07617	-528.12280	304.28763	146.42749	-693.18140	112.59228	1852.18689	-699.77820	281.39240	1536.34998	-517.46979	-72.89738	143.14610	-792.71771	174.70259	184.88805	-719.93378	241.60753	579.27502	-786.72644	47.04242	175.84761	-666.56537	200.86069	537.05676	-757.63220	-43.21350	489.63550	-757.21277	-14.35346	206.50455	-875.95648	-78.79716	141.44162	-652.57648	-80.41808	875.02423	-702.64557	-38.83469	616.88202	-591.04797	94.16456	1356.86877	-686.64435	263.55344	746.45172	-678.22833	140.03999	581.75641	-677.80780	-66.88980	761.10394	
